<svg xmlns="http://www.w3.org/2000/svg" version="1.1" xmlns:xlink="http://www.w3.org/1999/xlink" xmlns:svgjs="http://svgjs.com/svgjs" width="42" height="38"><svg width="42" height="38" viewBox="0 0 42 38" fill="none" xmlns="http://www.w3.org/2000/svg">
<path d="M11.3429 21.5204L1.62462 2.89419C1.5352 2.71434 1.49269 2.51482 1.50103 2.31415C1.50937 2.11347 1.56829 1.91816 1.67232 1.74636C1.77636 1.57456 1.92212 1.43184 2.09608 1.33145C2.27004 1.23107 2.46655 1.17628 2.66736 1.17218H41.2367M20.1496 36.8278L31.8819 14.3524C31.9827 14.163 32.1328 14.0043 32.3164 13.8931C32.4999 13.782 32.71 13.7224 32.9246 13.7208H34.5155C34.7163 13.7249 34.9128 13.7797 35.0868 13.88C35.2608 13.9804 35.4065 14.1232 35.5106 14.295C35.6146 14.4668 35.6735 14.6621 35.6819 14.8627C35.6902 15.0634 35.6477 15.2629 35.5583 15.4428L24.9819 35.648C24.8789 35.8343 24.7278 35.9896 24.5444 36.0977C24.3611 36.2058 24.1521 36.2628 23.9392 36.2628C23.7263 36.2628 23.5173 36.2058 23.334 36.0977C23.1506 35.9896 22.9995 35.8343 22.8965 35.648L7.744 6.61229C7.65301 6.43177 7.60945 6.23108 7.61739 6.02909C7.62533 5.8271 7.68453 5.63045 7.78941 5.45764C7.89428 5.28483 8.0414 5.14154 8.21691 5.04124C8.39242 4.94095 8.59056 4.88695 8.79269 4.88432H26.4001" stroke="#BEA6A0" stroke-width="1.4" stroke-miterlimit="10" stroke-linecap="round"></path>
</svg><style>@media (prefers-color-scheme: light) { :root { filter: none; } }
</style></svg>